<?xml version="1.0" encoding="utf-8"?>
<!-- Generator: Adobe Illustrator 15.1.0, SVG Export Plug-In . SVG Version: 6.00 Build 0)  -->
<!DOCTYPE svg PUBLIC "-//W3C//DTD SVG 1.1//EN" "http://www.w3.org/Graphics/SVG/1.1/DTD/svg11.dtd">
<svg version="1.1" id="Layer_1" xmlns="http://www.w3.org/2000/svg" xmlns:xlink="http://www.w3.org/1999/xlink" x="0px" y="0px"
	 width="333.66px" height="151.049px" viewBox="0 0 333.66 151.049" enable-background="new 0 0 333.66 151.049"
	 xml:space="preserve">
<g>
	<defs>
		<rect id="SVGID_1_" width="333.66" height="151.049"/>
	</defs>
	<clipPath id="SVGID_2_">
		<use xlink:href="#SVGID_1_"  overflow="visible"/>
	</clipPath>
	<g clip-path="url(#SVGID_2_)">
		<path d="M17.911,10.468l1.483-0.13c0.07,0.596,0.233,1.085,0.489,1.468c0.257,0.382,0.654,0.69,1.194,0.927
			c0.54,0.235,1.146,0.354,1.821,0.354c0.6,0,1.128-0.09,1.587-0.269s0.8-0.424,1.024-0.735c0.224-0.312,0.336-0.651,0.336-1.02
			c0-0.373-0.108-0.699-0.324-0.978c-0.217-0.278-0.573-0.513-1.07-0.702c-0.319-0.124-1.024-0.317-2.115-0.58
			c-1.092-0.263-1.856-0.51-2.294-0.743c-0.567-0.297-0.99-0.667-1.269-1.107c-0.278-0.441-0.418-0.935-0.418-1.481
			c0-0.601,0.171-1.162,0.511-1.684c0.341-0.522,0.838-0.919,1.491-1.189c0.654-0.271,1.381-0.406,2.181-0.406
			c0.881,0,1.658,0.143,2.33,0.426c0.673,0.284,1.19,0.701,1.553,1.252c0.362,0.552,0.557,1.176,0.583,1.873l-1.507,0.113
			c-0.081-0.751-0.355-1.318-0.823-1.702c-0.467-0.384-1.157-0.575-2.07-0.575c-0.951,0-1.645,0.175-2.079,0.523
			c-0.436,0.35-0.653,0.77-0.653,1.263c0,0.428,0.154,0.779,0.463,1.056c0.302,0.275,1.093,0.559,2.37,0.849
			c1.278,0.289,2.155,0.542,2.631,0.758c0.691,0.319,1.202,0.724,1.531,1.212c0.33,0.489,0.495,1.053,0.495,1.69
			c0,0.633-0.182,1.229-0.543,1.788s-0.882,0.994-1.559,1.305c-0.678,0.311-1.44,0.467-2.288,0.467
			c-1.074,0-1.975-0.157-2.701-0.471c-0.726-0.313-1.296-0.785-1.709-1.414C18.149,11.974,17.933,11.262,17.911,10.468z"/>
		<path d="M29.543,14.285V2.402h8.592v1.402h-7.02v3.631h6.573v1.402h-6.573v4.045h7.295v1.402H29.543z"/>
		<path d="M40.518,14.285V2.402h1.572v10.48h5.853v1.402H40.518z"/>
		<path d="M49.847,14.285V2.402h8.592v1.402h-7.02v3.631h6.573v1.402h-6.573v4.045h7.295v1.402H49.847z"/>
		<path d="M69.364,10.116l1.572,0.397c-0.329,1.292-0.923,2.277-1.778,2.956c-0.857,0.679-1.904,1.019-3.142,1.019
			c-1.28,0-2.322-0.262-3.124-0.783c-0.803-0.521-1.413-1.277-1.832-2.267c-0.419-0.99-0.628-2.053-0.628-3.188
			c0-1.238,0.236-2.318,0.709-3.24c0.473-0.923,1.146-1.623,2.019-2.102c0.872-0.478,1.833-0.718,2.881-0.718
			c1.188,0,2.188,0.303,2.999,0.909c0.811,0.605,1.375,1.456,1.694,2.554L69.187,6.02c-0.276-0.865-0.676-1.495-1.2-1.89
			c-0.524-0.396-1.184-0.593-1.978-0.593c-0.913,0-1.677,0.22-2.29,0.657c-0.613,0.438-1.044,1.026-1.293,1.765
			c-0.248,0.738-0.372,1.499-0.372,2.283c0,1.012,0.146,1.895,0.441,2.649c0.294,0.754,0.752,1.318,1.374,1.691
			c0.621,0.373,1.294,0.56,2.018,0.56c0.881,0,1.627-0.255,2.237-0.763C68.735,11.871,69.148,11.117,69.364,10.116z"/>
		<path d="M75.897,14.285V3.805h-3.915V2.402h9.419v1.402h-3.931v10.48H75.897z"/>
		<path d="M86.864,4.583l0.373-1.151c0.859,0.303,1.483,0.565,1.872,0.786c-0.103-0.978-0.156-1.65-0.162-2.018h1.176
			c-0.017,0.534-0.078,1.205-0.187,2.01c0.557-0.281,1.194-0.54,1.913-0.778l0.373,1.151c-0.687,0.227-1.359,0.377-2.019,0.452
			c0.329,0.286,0.794,0.795,1.394,1.527L90.625,7.25c-0.313-0.426-0.684-1.005-1.11-1.737c-0.399,0.759-0.751,1.338-1.054,1.737
			l-0.956-0.688c0.627-0.771,1.075-1.279,1.346-1.527C88.153,4.9,87.491,4.75,86.864,4.583z"/>
	</g>
</g>
<g>
	<path d="M18.519,34.205V22.322h8.017v1.402h-6.443v3.68h5.576v1.402h-5.576v5.398H18.519z"/>
</g>
<g>
	<path d="M28.604,34.205V22.322h5.269c1.06,0,1.864,0.107,2.416,0.32c0.551,0.214,0.991,0.591,1.321,1.131
		c0.329,0.54,0.494,1.138,0.494,1.791c0,0.843-0.273,1.554-0.818,2.132c-0.546,0.578-1.39,0.945-2.529,1.103
		c0.416,0.2,0.732,0.397,0.948,0.592c0.459,0.421,0.895,0.948,1.305,1.58l2.064,3.234H37.1l-1.573-2.473
		c-0.459-0.713-0.837-1.259-1.135-1.637c-0.297-0.378-0.562-0.644-0.798-0.795c-0.235-0.15-0.475-0.256-0.718-0.315
		c-0.178-0.038-0.47-0.057-0.875-0.057h-1.824v5.276H28.604z M30.177,27.566h3.381c0.718,0,1.28-0.074,1.686-0.223
		s0.713-0.386,0.924-0.713s0.316-0.683,0.316-1.066c0-0.562-0.204-1.023-0.612-1.386s-1.052-0.543-1.933-0.543h-3.762V27.566z"/>
</g>
<g>
	<path d="M39.756,28.418c0-1.973,0.529-3.517,1.588-4.633c1.06-1.115,2.427-1.674,4.102-1.674c1.098,0,2.086,0.263,2.967,0.787
		c0.881,0.523,1.553,1.255,2.015,2.192s0.692,2,0.692,3.189c0,1.205-0.243,2.283-0.729,3.233c-0.486,0.951-1.175,1.672-2.066,2.16
		c-0.892,0.489-1.854,0.734-2.886,0.734c-1.118,0-2.118-0.271-2.999-0.811c-0.881-0.541-1.548-1.278-2.002-2.213
		C39.982,30.449,39.756,29.461,39.756,28.418z M41.377,28.442c0,1.432,0.385,2.56,1.154,3.384c0.771,0.824,1.736,1.236,2.898,1.236
		c1.184,0,2.157-0.416,2.922-1.248c0.765-0.833,1.146-2.014,1.146-3.543c0-0.967-0.163-1.812-0.49-2.532
		c-0.327-0.722-0.805-1.281-1.435-1.678c-0.63-0.397-1.336-0.597-2.119-0.597c-1.113,0-2.071,0.383-2.874,1.147
		C41.778,25.377,41.377,26.653,41.377,28.442z"/>
	<path d="M53.098,34.205V22.322h2.366l2.816,8.414c0.26,0.783,0.449,1.369,0.567,1.759c0.136-0.433,0.347-1.067,0.634-1.905
		l2.853-8.268h2.119v11.883h-1.516V24.26l-3.467,9.945h-1.416L54.613,24.09v10.115H53.098z"/>
	<path d="M70.855,29.901c0-1.595,0.443-2.775,1.33-3.542c0.74-0.638,1.643-0.957,2.707-0.957c1.184,0,2.15,0.388,2.901,1.163
		s1.127,1.847,1.127,3.214c0,1.108-0.166,1.979-0.499,2.614c-0.332,0.635-0.815,1.128-1.45,1.479
		c-0.636,0.351-1.328,0.526-2.079,0.526c-1.205,0-2.18-0.386-2.922-1.159C71.228,32.468,70.855,31.354,70.855,29.901z
		 M72.355,29.901c0,1.103,0.24,1.928,0.722,2.476c0.48,0.549,1.086,0.823,1.815,0.823c0.724,0,1.326-0.275,1.808-0.827
		c0.48-0.551,0.721-1.392,0.721-2.521c0-1.064-0.241-1.871-0.725-2.42c-0.484-0.548-1.085-0.822-1.804-0.822
		c-0.729,0-1.335,0.272-1.815,0.818C72.596,27.975,72.355,28.799,72.355,29.901z"/>
	<path d="M80.615,34.205v-8.608h1.312v1.306c0.336-0.611,0.645-1.014,0.929-1.208c0.283-0.194,0.596-0.292,0.937-0.292
		c0.491,0,0.991,0.157,1.499,0.471l-0.505,1.353c-0.356-0.21-0.713-0.315-1.068-0.315c-0.319,0-0.605,0.096-0.858,0.288
		c-0.254,0.191-0.435,0.458-0.543,0.798c-0.162,0.519-0.243,1.086-0.243,1.702v4.507H80.615z"/>
	<path d="M91.736,34.205v-1.086c-0.546,0.854-1.349,1.28-2.407,1.28c-0.687,0-1.317-0.189-1.893-0.567
		c-0.576-0.378-1.021-0.906-1.338-1.584c-0.315-0.679-0.474-1.458-0.474-2.339c0-0.859,0.143-1.639,0.43-2.339
		c0.286-0.699,0.716-1.235,1.288-1.608c0.573-0.373,1.213-0.56,1.921-0.56c0.52,0,0.981,0.109,1.387,0.328s0.734,0.504,0.988,0.855
		l-0.008-4.264h1.459v11.883H91.736z M87.124,29.909c0,1.103,0.232,1.927,0.697,2.472c0.465,0.546,1.014,0.819,1.646,0.819
		c0.638,0,1.18-0.261,1.625-0.782c0.446-0.521,0.669-1.317,0.669-2.387c0-1.179-0.228-2.043-0.681-2.594
		c-0.454-0.552-1.014-0.827-1.679-0.827c-0.648,0-1.189,0.265-1.625,0.794C87.342,27.935,87.124,28.77,87.124,29.909z"/>
	<path d="M101.284,31.425l1.507,0.194c-0.237,0.881-0.678,1.564-1.32,2.051c-0.644,0.486-1.465,0.729-2.465,0.729
		c-1.259,0-2.257-0.388-2.995-1.163c-0.737-0.775-1.106-1.862-1.106-3.263c0-1.447,0.373-2.571,1.119-3.371s1.713-1.2,2.901-1.2
		c1.151,0,2.092,0.392,2.821,1.176c0.729,0.783,1.094,1.886,1.094,3.307c0,0.087-0.003,0.216-0.008,0.389h-6.428
		c0.054,0.946,0.322,1.67,0.804,2.173s1.083,0.754,1.803,0.754c0.535,0,0.993-0.142,1.372-0.424S101.062,32.044,101.284,31.425z
		 M96.485,29.074h4.814c-0.064-0.724-0.249-1.267-0.552-1.629c-0.466-0.562-1.069-0.843-1.811-0.843
		c-0.671,0-1.235,0.224-1.693,0.673C96.787,27.724,96.534,28.323,96.485,29.074z"/>
	<path d="M104.607,34.205v-8.608h1.312v1.306c0.336-0.611,0.645-1.014,0.929-1.208c0.283-0.194,0.596-0.292,0.937-0.292
		c0.491,0,0.991,0.157,1.499,0.471l-0.505,1.353c-0.356-0.21-0.713-0.315-1.068-0.315c-0.319,0-0.605,0.096-0.858,0.288
		c-0.254,0.191-0.435,0.458-0.543,0.798c-0.162,0.519-0.243,1.086-0.243,1.702v4.507H104.607z"/>
	<path d="M108.807,37.504V36.45h9.67v1.054H108.807z"/>
	<path d="M122.568,32.9l0.211,1.288c-0.41,0.087-0.778,0.13-1.103,0.13c-0.529,0-0.939-0.084-1.231-0.251
		c-0.292-0.168-0.497-0.388-0.616-0.661c-0.119-0.272-0.179-0.847-0.179-1.722v-4.953h-1.078v-1.135h1.078v-2.132l1.459-0.875v3.007
		h1.459v1.135h-1.459v5.034c0,0.416,0.025,0.684,0.077,0.802c0.051,0.119,0.134,0.214,0.25,0.284c0.115,0.07,0.28,0.105,0.495,0.105
		C122.093,32.957,122.306,32.938,122.568,32.9z"/>
	<path d="M129.612,33.144c-0.54,0.459-1.061,0.783-1.56,0.973c-0.5,0.188-1.036,0.283-1.609,0.283c-0.945,0-1.673-0.23-2.181-0.692
		c-0.508-0.463-0.762-1.053-0.762-1.771c0-0.422,0.096-0.807,0.288-1.155c0.191-0.349,0.442-0.628,0.754-0.839
		c0.311-0.211,0.66-0.37,1.05-0.479c0.286-0.075,0.718-0.148,1.297-0.219c1.178-0.14,2.045-0.308,2.602-0.502
		c0.005-0.2,0.008-0.327,0.008-0.381c0-0.595-0.138-1.014-0.413-1.257c-0.373-0.329-0.927-0.494-1.662-0.494
		c-0.686,0-1.192,0.12-1.52,0.36c-0.327,0.241-0.568,0.666-0.726,1.277l-1.426-0.195c0.129-0.61,0.343-1.104,0.64-1.479
		c0.297-0.376,0.727-0.665,1.289-0.868c0.562-0.202,1.213-0.304,1.953-0.304c0.735,0,1.332,0.087,1.792,0.26
		c0.459,0.173,0.797,0.391,1.013,0.652s0.367,0.593,0.454,0.993c0.049,0.248,0.072,0.696,0.072,1.345v1.945
		c0,1.356,0.031,2.215,0.094,2.574c0.062,0.359,0.185,0.704,0.369,1.033h-1.524C129.753,33.902,129.656,33.549,129.612,33.144z
		 M129.491,29.885c-0.529,0.216-1.324,0.4-2.383,0.551c-0.6,0.087-1.024,0.185-1.272,0.292c-0.249,0.108-0.44,0.267-0.576,0.475
		c-0.135,0.208-0.202,0.438-0.202,0.692c0,0.39,0.146,0.714,0.441,0.973c0.295,0.26,0.726,0.39,1.293,0.39
		c0.562,0,1.062-0.123,1.5-0.369c0.438-0.245,0.759-0.582,0.964-1.009c0.157-0.33,0.235-0.816,0.235-1.459V29.885z"/>
</g>
<g>
	<path d="M134.568,34.205h-1.354V22.322h1.459v4.239c0.616-0.772,1.402-1.159,2.359-1.159c0.529,0,1.03,0.107,1.503,0.32
		c0.473,0.214,0.862,0.514,1.167,0.899c0.306,0.387,0.545,0.853,0.718,1.398s0.259,1.13,0.259,1.751c0,1.475-0.364,2.615-1.094,3.42
		c-0.729,0.806-1.604,1.208-2.626,1.208c-1.017,0-1.813-0.424-2.392-1.272V34.205z M134.553,29.836c0,1.032,0.14,1.778,0.421,2.237
		c0.458,0.751,1.078,1.127,1.86,1.127c0.637,0,1.187-0.277,1.65-0.831s0.696-1.379,0.696-2.477c0-1.123-0.223-1.953-0.668-2.488
		c-0.444-0.535-0.982-0.802-1.613-0.802c-0.637,0-1.188,0.276-1.651,0.83C134.784,27.987,134.553,28.788,134.553,29.836z"/>
</g>
<g>
	<path d="M142.089,34.205V22.322h1.459v11.883H142.089z"/>
	<path d="M151.702,31.425l1.507,0.194c-0.237,0.881-0.678,1.564-1.32,2.051c-0.644,0.486-1.465,0.729-2.465,0.729
		c-1.259,0-2.257-0.388-2.995-1.163c-0.737-0.775-1.106-1.862-1.106-3.263c0-1.447,0.373-2.571,1.119-3.371s1.713-1.2,2.901-1.2
		c1.151,0,2.092,0.392,2.821,1.176c0.729,0.783,1.094,1.886,1.094,3.307c0,0.087-0.003,0.216-0.008,0.389h-6.428
		c0.054,0.946,0.322,1.67,0.804,2.173s1.083,0.754,1.803,0.754c0.535,0,0.993-0.142,1.372-0.424S151.479,32.044,151.702,31.425z
		 M146.903,29.074h4.814c-0.064-0.724-0.249-1.267-0.552-1.629c-0.466-0.562-1.069-0.843-1.811-0.843
		c-0.671,0-1.235,0.224-1.693,0.673C147.205,27.724,146.952,28.323,146.903,29.074z"/>
	<path d="M158.54,34.205l4.573-11.883h1.686l4.865,11.883h-1.791l-1.384-3.599h-4.978l-1.307,3.599H158.54z M161.967,29.325h4.028
		l-1.242-3.291c-0.378-0.999-0.658-1.82-0.84-2.464c-0.151,0.764-0.363,1.521-0.637,2.272L161.967,29.325z"/>
	<path d="M170.386,30.388l1.483-0.13c0.07,0.596,0.233,1.085,0.489,1.468c0.257,0.382,0.654,0.69,1.194,0.927
		c0.54,0.235,1.146,0.354,1.821,0.354c0.6,0,1.128-0.09,1.587-0.269s0.8-0.424,1.024-0.735c0.224-0.312,0.336-0.651,0.336-1.02
		c0-0.373-0.108-0.699-0.324-0.978c-0.217-0.278-0.573-0.513-1.07-0.702c-0.319-0.124-1.024-0.317-2.115-0.58
		c-1.092-0.263-1.856-0.51-2.294-0.743c-0.567-0.297-0.99-0.667-1.269-1.107c-0.278-0.441-0.418-0.935-0.418-1.481
		c0-0.601,0.171-1.162,0.511-1.684c0.341-0.522,0.838-0.919,1.491-1.189c0.654-0.271,1.381-0.406,2.181-0.406
		c0.881,0,1.658,0.143,2.33,0.426c0.673,0.284,1.19,0.701,1.553,1.252c0.362,0.552,0.557,1.176,0.583,1.873l-1.507,0.113
		c-0.081-0.751-0.355-1.318-0.823-1.702c-0.467-0.384-1.157-0.575-2.07-0.575c-0.951,0-1.645,0.175-2.079,0.523
		c-0.436,0.35-0.653,0.77-0.653,1.263c0,0.428,0.154,0.779,0.463,1.056c0.302,0.275,1.093,0.559,2.37,0.849
		c1.278,0.289,2.155,0.542,2.631,0.758c0.691,0.319,1.202,0.724,1.531,1.212c0.33,0.489,0.495,1.053,0.495,1.69
		c0,0.633-0.182,1.229-0.543,1.788s-0.882,0.994-1.559,1.305c-0.678,0.311-1.44,0.467-2.288,0.467c-1.074,0-1.975-0.157-2.701-0.471
		c-0.726-0.313-1.296-0.785-1.709-1.414C170.624,31.894,170.407,31.182,170.386,30.388z"/>
	<path d="M185.866,29.901c0-1.595,0.443-2.775,1.33-3.542c0.74-0.638,1.643-0.957,2.707-0.957c1.184,0,2.15,0.388,2.901,1.163
		s1.127,1.847,1.127,3.214c0,1.108-0.166,1.979-0.499,2.614c-0.332,0.635-0.815,1.128-1.45,1.479
		c-0.636,0.351-1.328,0.526-2.079,0.526c-1.205,0-2.18-0.386-2.922-1.159C186.238,32.468,185.866,31.354,185.866,29.901z
		 M187.366,29.901c0,1.103,0.24,1.928,0.722,2.476c0.48,0.549,1.086,0.823,1.815,0.823c0.724,0,1.326-0.275,1.808-0.827
		c0.48-0.551,0.721-1.392,0.721-2.521c0-1.064-0.241-1.871-0.725-2.42c-0.484-0.548-1.085-0.822-1.804-0.822
		c-0.729,0-1.335,0.272-1.815,0.818C187.606,27.975,187.366,28.799,187.366,29.901z"/>
	<path d="M194.297,37.504V36.45h9.67v1.054H194.297z"/>
	<path d="M209.965,34.205h-1.459v-9.297c-0.352,0.335-0.812,0.67-1.382,1.005c-0.57,0.335-1.082,0.587-1.536,0.754v-1.41
		c0.815-0.384,1.529-0.849,2.14-1.395s1.043-1.075,1.297-1.589h0.94V34.205z"/>
</g>
<g>
	<path d="M20.516,54.125L17.36,42.242h1.612l1.813,7.788c0.195,0.816,0.362,1.627,0.501,2.433c0.302-1.269,0.479-2.001,0.533-2.195
		l2.263-8.025h1.897l1.703,6.013c0.423,1.493,0.73,2.896,0.923,4.208c0.152-0.75,0.349-1.611,0.589-2.585l1.871-7.636h1.58
		l-3.26,11.883h-1.519l-2.494-9.058c-0.219-0.754-0.347-1.218-0.383-1.391c-0.127,0.546-0.244,1.011-0.349,1.396l-2.519,9.053
		H20.516z"/>
	<path d="M34.163,54.125V42.242h1.572v4.88h6.168v-4.88h1.572v11.883h-1.572v-5.601h-6.168v5.601H34.163z"/>
	<path d="M46.127,54.125V42.242h8.592v1.402h-7.02v3.631h6.573v1.402h-6.573v4.045h7.295v1.402H46.127z"/>
	<path d="M57.189,54.125V42.242h5.269c1.06,0,1.864,0.107,2.416,0.32c0.551,0.214,0.991,0.591,1.321,1.131
		c0.329,0.54,0.494,1.138,0.494,1.791c0,0.843-0.273,1.554-0.818,2.132c-0.546,0.578-1.39,0.945-2.529,1.103
		c0.416,0.2,0.732,0.397,0.948,0.592c0.459,0.421,0.895,0.948,1.305,1.58l2.064,3.234h-1.975l-1.573-2.473
		c-0.459-0.713-0.837-1.259-1.135-1.637c-0.297-0.378-0.562-0.644-0.798-0.795c-0.235-0.15-0.475-0.256-0.718-0.315
		c-0.178-0.038-0.47-0.057-0.875-0.057h-1.824v5.276H57.189z M58.762,47.486h3.381c0.718,0,1.28-0.074,1.686-0.223
		s0.713-0.386,0.924-0.713s0.316-0.683,0.316-1.066c0-0.562-0.204-1.023-0.612-1.386s-1.052-0.543-1.933-0.543h-3.762V47.486z"/>
	<path d="M69.187,54.125V42.242h8.592v1.402h-7.02v3.631h6.573v1.402h-6.573v4.045h7.295v1.402H69.187z"/>
	<path d="M84.108,49.821c0-1.595,0.443-2.775,1.33-3.542c0.74-0.638,1.643-0.957,2.707-0.957c1.184,0,2.15,0.388,2.901,1.163
		s1.127,1.847,1.127,3.214c0,1.108-0.166,1.979-0.499,2.614c-0.332,0.635-0.815,1.128-1.45,1.479
		c-0.636,0.351-1.328,0.526-2.079,0.526c-1.205,0-2.18-0.386-2.922-1.159C84.48,52.388,84.108,51.274,84.108,49.821z M85.608,49.821
		c0,1.103,0.24,1.928,0.722,2.476c0.48,0.549,1.086,0.823,1.815,0.823c0.724,0,1.326-0.275,1.808-0.827
		c0.48-0.551,0.721-1.392,0.721-2.521c0-1.064-0.241-1.871-0.725-2.42c-0.484-0.548-1.085-0.822-1.804-0.822
		c-0.729,0-1.335,0.272-1.815,0.818C85.849,47.895,85.608,48.719,85.608,49.821z"/>
	<path d="M93.867,54.125v-8.608h1.312v1.306c0.336-0.611,0.645-1.014,0.929-1.208c0.283-0.194,0.596-0.292,0.937-0.292
		c0.491,0,0.991,0.157,1.499,0.471l-0.505,1.353c-0.356-0.21-0.713-0.315-1.068-0.315c-0.319,0-0.605,0.096-0.858,0.288
		c-0.254,0.191-0.435,0.458-0.543,0.798c-0.162,0.519-0.243,1.086-0.243,1.702v4.507H93.867z"/>
	<path d="M104.988,54.125v-1.086c-0.546,0.854-1.349,1.28-2.407,1.28c-0.687,0-1.317-0.189-1.893-0.567
		c-0.576-0.378-1.021-0.906-1.338-1.584c-0.315-0.679-0.474-1.458-0.474-2.339c0-0.859,0.143-1.639,0.43-2.339
		c0.286-0.699,0.716-1.235,1.288-1.608c0.573-0.373,1.213-0.56,1.921-0.56c0.52,0,0.981,0.109,1.387,0.328s0.734,0.504,0.988,0.855
		l-0.008-4.264h1.459v11.883H104.988z M100.376,49.829c0,1.103,0.232,1.927,0.697,2.472c0.465,0.546,1.014,0.819,1.646,0.819
		c0.638,0,1.18-0.261,1.625-0.782c0.446-0.521,0.669-1.317,0.669-2.387c0-1.179-0.228-2.043-0.681-2.594
		c-0.454-0.552-1.014-0.827-1.679-0.827c-0.648,0-1.189,0.265-1.625,0.794C100.594,47.854,100.376,48.689,100.376,49.829z"/>
	<path d="M114.537,51.345l1.507,0.194c-0.237,0.881-0.678,1.564-1.32,2.051c-0.644,0.486-1.465,0.729-2.465,0.729
		c-1.259,0-2.257-0.388-2.995-1.163c-0.737-0.775-1.106-1.862-1.106-3.263c0-1.447,0.373-2.571,1.119-3.371s1.713-1.2,2.901-1.2
		c1.151,0,2.092,0.392,2.821,1.176c0.729,0.783,1.094,1.886,1.094,3.307c0,0.087-0.003,0.216-0.008,0.389h-6.428
		c0.054,0.946,0.322,1.67,0.804,2.173s1.083,0.754,1.803,0.754c0.535,0,0.993-0.142,1.372-0.424S114.314,51.964,114.537,51.345z
		 M109.738,48.994h4.814c-0.064-0.724-0.249-1.267-0.552-1.629c-0.466-0.562-1.069-0.843-1.811-0.843
		c-0.671,0-1.235,0.224-1.693,0.673C110.04,47.644,109.787,48.243,109.738,48.994z"/>
	<path d="M117.859,54.125v-8.608h1.312v1.306c0.336-0.611,0.645-1.014,0.929-1.208c0.283-0.194,0.596-0.292,0.937-0.292
		c0.491,0,0.991,0.157,1.499,0.471l-0.505,1.353c-0.356-0.21-0.713-0.315-1.068-0.315c-0.319,0-0.605,0.096-0.858,0.288
		c-0.254,0.191-0.435,0.458-0.543,0.798c-0.162,0.519-0.243,1.086-0.243,1.702v4.507H117.859z"/>
	<path d="M122.059,57.424V56.37h9.67v1.054H122.059z"/>
	<path d="M138.253,53.063c-0.54,0.459-1.061,0.783-1.56,0.973c-0.5,0.188-1.036,0.283-1.609,0.283c-0.945,0-1.673-0.23-2.181-0.692
		c-0.508-0.463-0.762-1.053-0.762-1.771c0-0.422,0.096-0.807,0.288-1.155c0.191-0.349,0.442-0.628,0.754-0.839
		c0.311-0.211,0.66-0.37,1.05-0.479c0.286-0.075,0.718-0.148,1.297-0.219c1.178-0.14,2.045-0.308,2.602-0.502
		c0.005-0.2,0.008-0.327,0.008-0.381c0-0.595-0.138-1.014-0.413-1.257c-0.373-0.329-0.927-0.494-1.662-0.494
		c-0.686,0-1.192,0.12-1.52,0.36c-0.327,0.241-0.568,0.666-0.726,1.277l-1.426-0.195c0.129-0.61,0.343-1.104,0.64-1.479
		c0.297-0.376,0.727-0.665,1.289-0.868c0.562-0.202,1.213-0.304,1.953-0.304c0.735,0,1.332,0.087,1.792,0.26
		c0.459,0.173,0.797,0.391,1.013,0.652s0.367,0.593,0.454,0.993c0.049,0.248,0.072,0.696,0.072,1.345v1.945
		c0,1.356,0.031,2.215,0.094,2.574c0.062,0.359,0.185,0.704,0.369,1.033h-1.524C138.394,53.822,138.297,53.469,138.253,53.063z
		 M138.132,49.805c-0.529,0.216-1.324,0.4-2.383,0.551c-0.6,0.087-1.024,0.185-1.272,0.292c-0.249,0.108-0.44,0.267-0.576,0.475
		c-0.135,0.208-0.202,0.438-0.202,0.692c0,0.39,0.146,0.714,0.441,0.973c0.295,0.26,0.726,0.39,1.293,0.39
		c0.562,0,1.062-0.123,1.5-0.369c0.438-0.245,0.759-0.582,0.964-1.009c0.157-0.33,0.235-0.816,0.235-1.459V49.805z"/>
	<path d="M141.867,54.125v-8.608h1.306v1.208c0.27-0.422,0.629-0.761,1.078-1.018c0.448-0.256,0.959-0.385,1.531-0.385
		c0.638,0,1.161,0.133,1.568,0.397c0.408,0.265,0.696,0.635,0.863,1.11c0.683-1.005,1.569-1.508,2.663-1.508
		c0.854,0,1.513,0.236,1.973,0.709c0.46,0.474,0.689,1.201,0.689,2.185v5.909h-1.459v-5.423c0-0.583-0.047-1.003-0.142-1.26
		s-0.266-0.464-0.515-0.62c-0.248-0.157-0.54-0.235-0.875-0.235c-0.605,0-1.108,0.201-1.508,0.604c-0.4,0.403-0.6,1.047-0.6,1.934
		v5.001h-1.459v-5.593c0-0.648-0.119-1.135-0.356-1.459c-0.238-0.324-0.627-0.486-1.168-0.486c-0.41,0-0.79,0.108-1.139,0.324
		s-0.601,0.532-0.758,0.948c-0.156,0.416-0.235,1.016-0.235,1.8v4.466H141.867z"/>
	<path d="M155.152,49.821c0-1.595,0.443-2.775,1.33-3.542c0.74-0.638,1.643-0.957,2.707-0.957c1.184,0,2.15,0.388,2.901,1.163
		s1.127,1.847,1.127,3.214c0,1.108-0.166,1.979-0.499,2.614c-0.332,0.635-0.815,1.128-1.45,1.479
		c-0.636,0.351-1.328,0.526-2.079,0.526c-1.205,0-2.18-0.386-2.922-1.159C155.524,52.388,155.152,51.274,155.152,49.821z
		 M156.652,49.821c0,1.103,0.24,1.928,0.722,2.476c0.48,0.549,1.086,0.823,1.815,0.823c0.724,0,1.326-0.275,1.808-0.827
		c0.48-0.551,0.721-1.392,0.721-2.521c0-1.064-0.241-1.871-0.725-2.42c-0.484-0.548-1.085-0.822-1.804-0.822
		c-0.729,0-1.335,0.272-1.815,0.818C156.893,47.895,156.652,48.719,156.652,49.821z"/>
	<path d="M170.569,54.125V52.86c-0.67,0.973-1.58,1.459-2.731,1.459c-0.508,0-0.982-0.097-1.422-0.292
		c-0.441-0.194-0.768-0.438-0.981-0.733c-0.213-0.294-0.363-0.655-0.449-1.082c-0.06-0.286-0.09-0.74-0.09-1.361v-5.334h1.459v4.774
		c0,0.762,0.03,1.275,0.09,1.54c0.092,0.384,0.286,0.685,0.583,0.904c0.297,0.219,0.665,0.328,1.103,0.328s0.849-0.112,1.232-0.337
		c0.383-0.224,0.654-0.529,0.814-0.916c0.159-0.386,0.239-0.946,0.239-1.682v-4.612h1.459v8.608H170.569z"/>
	<path d="M174.159,54.125v-8.608h1.313v1.225c0.632-0.946,1.546-1.419,2.739-1.419c0.52,0,0.996,0.094,1.431,0.28
		c0.436,0.186,0.761,0.431,0.978,0.733c0.216,0.303,0.367,0.662,0.453,1.078c0.055,0.27,0.081,0.742,0.081,1.418v5.293h-1.459
		v-5.236c0-0.594-0.057-1.038-0.17-1.333s-0.314-0.529-0.604-0.705s-0.628-0.264-1.018-0.264c-0.621,0-1.158,0.197-1.608,0.592
		c-0.452,0.395-0.678,1.143-0.678,2.245v4.701H174.159z"/>
	<path d="M186.577,52.82l0.211,1.288c-0.41,0.087-0.778,0.13-1.103,0.13c-0.529,0-0.939-0.084-1.231-0.251
		c-0.292-0.168-0.497-0.388-0.616-0.661c-0.119-0.272-0.179-0.847-0.179-1.722v-4.953h-1.078v-1.135h1.078v-2.132l1.459-0.875v3.007
		h1.459v1.135h-1.459v5.034c0,0.416,0.025,0.684,0.077,0.802c0.051,0.119,0.134,0.214,0.25,0.284c0.115,0.07,0.28,0.105,0.495,0.105
		C186.102,52.877,186.314,52.857,186.577,52.82z"/>
	<path d="M192.431,48.93v-1.37l7.862-3.323v1.459l-6.233,2.558l6.233,2.581v1.459L192.431,48.93z"/>
</g>
<g>
	<path d="M44.1,77.538c-0.806-1.016-1.486-2.204-2.043-3.566c-0.557-1.361-0.835-2.771-0.835-4.23c0-1.286,0.208-2.519,0.624-3.696
		c0.486-1.367,1.237-2.729,2.254-4.085h1.045c-0.653,1.124-1.086,1.926-1.297,2.407c-0.329,0.745-0.589,1.523-0.777,2.334
		c-0.232,1.011-0.349,2.026-0.349,3.048c0,2.6,0.808,5.195,2.423,7.789H44.1z"/>
	<path d="M46.499,70.228l1.483-0.13c0.07,0.596,0.233,1.085,0.489,1.468c0.257,0.382,0.654,0.69,1.194,0.927
		c0.54,0.235,1.146,0.354,1.821,0.354c0.6,0,1.128-0.09,1.587-0.269s0.8-0.424,1.024-0.735c0.224-0.312,0.336-0.651,0.336-1.02
		c0-0.373-0.108-0.699-0.324-0.978c-0.217-0.278-0.573-0.513-1.07-0.702c-0.319-0.124-1.024-0.317-2.115-0.58
		c-1.092-0.263-1.856-0.51-2.294-0.743c-0.567-0.297-0.99-0.667-1.269-1.107c-0.278-0.441-0.418-0.935-0.418-1.481
		c0-0.601,0.171-1.162,0.511-1.684c0.341-0.522,0.838-0.919,1.491-1.189c0.654-0.271,1.381-0.406,2.181-0.406
		c0.881,0,1.658,0.143,2.33,0.426c0.673,0.284,1.19,0.701,1.553,1.252c0.362,0.552,0.557,1.176,0.583,1.873l-1.507,0.113
		c-0.081-0.751-0.355-1.318-0.823-1.702c-0.467-0.384-1.157-0.575-2.07-0.575c-0.951,0-1.645,0.175-2.079,0.523
		c-0.436,0.35-0.653,0.77-0.653,1.263c0,0.428,0.154,0.779,0.463,1.056c0.302,0.275,1.093,0.559,2.37,0.849
		c1.278,0.289,2.155,0.542,2.631,0.758c0.691,0.319,1.202,0.724,1.531,1.212c0.33,0.489,0.495,1.053,0.495,1.69
		c0,0.633-0.182,1.229-0.543,1.788s-0.882,0.994-1.559,1.305c-0.678,0.311-1.44,0.467-2.288,0.467c-1.074,0-1.975-0.157-2.701-0.471
		c-0.726-0.313-1.296-0.785-1.709-1.414C46.737,71.733,46.521,71.021,46.499,70.228z"/>
	<path d="M58.131,74.045V62.162h8.592v1.402h-7.02v3.631h6.573v1.402h-6.573v4.045h7.295v1.402H58.131z"/>
	<path d="M69.105,74.045V62.162h1.572v10.48h5.853v1.402H69.105z"/>
	<path d="M78.435,74.045V62.162h8.592v1.402h-7.02v3.631h6.573v1.402h-6.573v4.045h7.295v1.402H78.435z"/>
	<path d="M97.952,69.876l1.572,0.397c-0.329,1.292-0.923,2.277-1.778,2.956c-0.857,0.679-1.904,1.019-3.142,1.019
		c-1.28,0-2.322-0.262-3.124-0.783c-0.803-0.521-1.413-1.277-1.832-2.267c-0.419-0.99-0.628-2.053-0.628-3.188
		c0-1.238,0.236-2.318,0.709-3.24c0.473-0.923,1.146-1.623,2.019-2.102c0.872-0.478,1.833-0.718,2.881-0.718
		c1.188,0,2.188,0.303,2.999,0.909c0.811,0.605,1.375,1.456,1.694,2.554l-1.548,0.365c-0.276-0.865-0.676-1.495-1.2-1.89
		c-0.524-0.396-1.184-0.593-1.978-0.593c-0.913,0-1.677,0.22-2.29,0.657c-0.613,0.438-1.044,1.026-1.293,1.765
		c-0.248,0.738-0.372,1.499-0.372,2.283c0,1.012,0.146,1.895,0.441,2.649c0.294,0.754,0.752,1.318,1.374,1.691
		c0.621,0.373,1.294,0.56,2.018,0.56c0.881,0,1.627-0.255,2.237-0.763C97.323,71.631,97.736,70.877,97.952,69.876z"/>
	<path d="M104.485,74.045v-10.48h-3.915v-1.402h9.419v1.402h-3.931v10.48H104.485z"/>
	<path d="M116.166,74.045V62.162h2.366l2.816,8.414c0.26,0.783,0.449,1.369,0.567,1.759c0.136-0.433,0.347-1.067,0.634-1.905
		l2.853-8.268h2.119v11.883h-1.516V64.1l-3.467,9.945h-1.416l-3.441-10.115v10.115H116.166z"/>
	<path d="M128.742,74.045l4.573-11.883h1.686l4.865,11.883h-1.791l-1.384-3.599h-4.978l-1.307,3.599H128.742z M132.169,69.165h4.028
		l-1.242-3.291c-0.378-0.999-0.658-1.82-0.84-2.464c-0.151,0.764-0.363,1.521-0.637,2.272L132.169,69.165z"/>
	<path d="M139.906,74.045l4.596-6.157l-4.053-5.726h1.877l2.167,3.036c0.45,0.632,0.771,1.121,0.961,1.468
		c0.257-0.426,0.567-0.873,0.932-1.342l2.391-3.162h1.707l-4.128,5.646l4.452,6.237h-1.945l-3.001-4.238
		c-0.17-0.24-0.334-0.485-0.49-0.734c-0.259,0.409-0.447,0.693-0.563,0.853l-3.013,4.12H139.906z"/>
	<path d="M159.4,77.538c-0.806-1.016-1.486-2.204-2.043-3.566c-0.557-1.361-0.835-2.771-0.835-4.23c0-1.286,0.208-2.519,0.624-3.696
		c0.486-1.367,1.237-2.729,2.254-4.085h1.045c-0.653,1.124-1.086,1.926-1.297,2.407c-0.329,0.745-0.589,1.523-0.777,2.334
		c-0.232,1.011-0.349,2.026-0.349,3.048c0,2.6,0.808,5.195,2.423,7.789H159.4z"/>
	<path d="M161.596,69.741c0-1.595,0.443-2.775,1.33-3.542c0.74-0.638,1.643-0.957,2.707-0.957c1.184,0,2.15,0.388,2.901,1.163
		s1.127,1.847,1.127,3.214c0,1.108-0.166,1.979-0.499,2.614c-0.332,0.635-0.815,1.128-1.45,1.479
		c-0.636,0.351-1.328,0.526-2.079,0.526c-1.205,0-2.18-0.386-2.922-1.159C161.968,72.308,161.596,71.194,161.596,69.741z
		 M163.096,69.741c0,1.103,0.24,1.928,0.722,2.476c0.48,0.549,1.086,0.823,1.815,0.823c0.724,0,1.326-0.275,1.808-0.827
		c0.48-0.551,0.721-1.392,0.721-2.521c0-1.064-0.241-1.871-0.725-2.42c-0.484-0.548-1.085-0.822-1.804-0.822
		c-0.729,0-1.335,0.272-1.815,0.818C163.336,67.814,163.096,68.639,163.096,69.741z"/>
	<path d="M171.355,74.045v-8.608h1.312v1.306c0.336-0.611,0.645-1.014,0.929-1.208c0.283-0.194,0.596-0.292,0.937-0.292
		c0.491,0,0.991,0.157,1.499,0.471l-0.505,1.353c-0.356-0.21-0.713-0.315-1.068-0.315c-0.319,0-0.605,0.096-0.858,0.288
		c-0.254,0.191-0.435,0.458-0.543,0.798c-0.162,0.519-0.243,1.086-0.243,1.702v4.507H171.355z"/>
	<path d="M182.477,74.045v-1.086c-0.546,0.854-1.349,1.28-2.407,1.28c-0.687,0-1.317-0.189-1.893-0.567
		c-0.576-0.378-1.021-0.906-1.338-1.584c-0.315-0.679-0.474-1.458-0.474-2.339c0-0.859,0.143-1.639,0.43-2.339
		c0.286-0.699,0.716-1.235,1.288-1.608c0.573-0.373,1.213-0.56,1.921-0.56c0.52,0,0.981,0.109,1.387,0.328s0.734,0.504,0.988,0.855
		l-0.008-4.264h1.459v11.883H182.477z M177.864,69.749c0,1.103,0.232,1.927,0.697,2.472c0.465,0.546,1.014,0.819,1.646,0.819
		c0.638,0,1.18-0.261,1.625-0.782c0.446-0.521,0.669-1.317,0.669-2.387c0-1.179-0.228-2.043-0.681-2.594
		c-0.454-0.552-1.014-0.827-1.679-0.827c-0.648,0-1.189,0.265-1.625,0.794C178.082,67.774,177.864,68.609,177.864,69.749z"/>
	<path d="M192.024,71.265l1.507,0.194c-0.237,0.881-0.678,1.564-1.32,2.051c-0.644,0.486-1.465,0.729-2.465,0.729
		c-1.259,0-2.257-0.388-2.995-1.163c-0.737-0.775-1.106-1.862-1.106-3.263c0-1.447,0.373-2.571,1.119-3.371s1.713-1.2,2.901-1.2
		c1.151,0,2.092,0.392,2.821,1.176c0.729,0.783,1.094,1.886,1.094,3.307c0,0.087-0.003,0.216-0.008,0.389h-6.428
		c0.054,0.946,0.322,1.67,0.804,2.173s1.083,0.754,1.803,0.754c0.535,0,0.993-0.142,1.372-0.424S191.802,71.884,192.024,71.265z
		 M187.226,68.914h4.814c-0.064-0.724-0.249-1.267-0.552-1.629c-0.466-0.562-1.069-0.843-1.811-0.843
		c-0.671,0-1.235,0.224-1.693,0.673C187.527,67.563,187.274,68.163,187.226,68.914z"/>
	<path d="M195.348,74.045v-8.608h1.312v1.306c0.336-0.611,0.645-1.014,0.929-1.208c0.283-0.194,0.596-0.292,0.937-0.292
		c0.491,0,0.991,0.157,1.499,0.471l-0.505,1.353c-0.356-0.21-0.713-0.315-1.068-0.315c-0.319,0-0.605,0.096-0.858,0.288
		c-0.254,0.191-0.435,0.458-0.543,0.798c-0.162,0.519-0.243,1.086-0.243,1.702v4.507H195.348z"/>
	<path d="M199.547,77.344V76.29h9.67v1.054H199.547z"/>
	<path d="M215.74,72.983c-0.54,0.459-1.061,0.783-1.56,0.973c-0.5,0.188-1.036,0.283-1.609,0.283c-0.945,0-1.673-0.23-2.181-0.692
		c-0.508-0.463-0.762-1.053-0.762-1.771c0-0.422,0.096-0.807,0.288-1.155c0.191-0.349,0.442-0.628,0.754-0.839
		c0.311-0.211,0.66-0.37,1.05-0.479c0.286-0.075,0.718-0.148,1.297-0.219c1.178-0.14,2.045-0.308,2.602-0.502
		c0.005-0.2,0.008-0.327,0.008-0.381c0-0.595-0.138-1.014-0.413-1.257c-0.373-0.329-0.927-0.494-1.662-0.494
		c-0.686,0-1.192,0.12-1.52,0.36c-0.327,0.241-0.568,0.666-0.726,1.277l-1.426-0.195c0.129-0.61,0.343-1.104,0.64-1.479
		c0.297-0.376,0.727-0.665,1.289-0.868c0.562-0.202,1.213-0.304,1.953-0.304c0.735,0,1.332,0.087,1.792,0.26
		c0.459,0.173,0.797,0.391,1.013,0.652s0.367,0.593,0.454,0.993c0.049,0.248,0.072,0.696,0.072,1.345v1.945
		c0,1.356,0.031,2.215,0.094,2.574c0.062,0.359,0.185,0.704,0.369,1.033h-1.524C215.881,73.742,215.784,73.389,215.74,72.983z
		 M215.619,69.725c-0.529,0.216-1.324,0.4-2.383,0.551c-0.6,0.087-1.024,0.185-1.272,0.292c-0.249,0.108-0.44,0.267-0.576,0.475
		c-0.135,0.208-0.202,0.438-0.202,0.692c0,0.39,0.146,0.714,0.441,0.973c0.295,0.26,0.726,0.39,1.293,0.39
		c0.562,0,1.062-0.123,1.5-0.369c0.438-0.245,0.759-0.582,0.964-1.009c0.157-0.33,0.235-0.816,0.235-1.459V69.725z"/>
	<path d="M219.355,74.045v-8.608h1.306v1.208c0.27-0.422,0.629-0.761,1.078-1.018c0.448-0.256,0.959-0.385,1.531-0.385
		c0.638,0,1.161,0.133,1.568,0.397c0.408,0.265,0.696,0.635,0.863,1.11c0.683-1.005,1.569-1.508,2.663-1.508
		c0.854,0,1.513,0.236,1.973,0.709c0.46,0.474,0.689,1.201,0.689,2.185v5.909h-1.459v-5.423c0-0.583-0.047-1.003-0.142-1.26
		s-0.266-0.464-0.515-0.62c-0.248-0.157-0.54-0.235-0.875-0.235c-0.605,0-1.108,0.201-1.508,0.604c-0.4,0.403-0.6,1.047-0.6,1.934
		v5.001h-1.459v-5.593c0-0.648-0.119-1.135-0.356-1.459c-0.238-0.324-0.627-0.486-1.168-0.486c-0.41,0-0.79,0.108-1.139,0.324
		s-0.601,0.532-0.758,0.948c-0.156,0.416-0.235,1.016-0.235,1.8v4.466H219.355z"/>
	<path d="M232.641,69.741c0-1.595,0.443-2.775,1.33-3.542c0.74-0.638,1.643-0.957,2.707-0.957c1.184,0,2.15,0.388,2.901,1.163
		s1.127,1.847,1.127,3.214c0,1.108-0.166,1.979-0.499,2.614c-0.332,0.635-0.815,1.128-1.45,1.479
		c-0.636,0.351-1.328,0.526-2.079,0.526c-1.205,0-2.18-0.386-2.922-1.159C233.013,72.308,232.641,71.194,232.641,69.741z
		 M234.141,69.741c0,1.103,0.24,1.928,0.722,2.476c0.48,0.549,1.086,0.823,1.815,0.823c0.724,0,1.326-0.275,1.808-0.827
		c0.48-0.551,0.721-1.392,0.721-2.521c0-1.064-0.241-1.871-0.725-2.42c-0.484-0.548-1.085-0.822-1.804-0.822
		c-0.729,0-1.335,0.272-1.815,0.818C234.381,67.814,234.141,68.639,234.141,69.741z"/>
	<path d="M248.058,74.045V72.78c-0.67,0.973-1.58,1.459-2.731,1.459c-0.508,0-0.982-0.097-1.422-0.292
		c-0.441-0.194-0.768-0.438-0.981-0.733c-0.213-0.294-0.363-0.655-0.449-1.082c-0.06-0.286-0.09-0.74-0.09-1.361v-5.334h1.459v4.774
		c0,0.762,0.03,1.275,0.09,1.54c0.092,0.384,0.286,0.685,0.583,0.904c0.297,0.219,0.665,0.328,1.103,0.328s0.849-0.112,1.232-0.337
		c0.383-0.224,0.654-0.529,0.814-0.916c0.159-0.386,0.239-0.946,0.239-1.682v-4.612h1.459v8.608H248.058z"/>
	<path d="M251.647,74.045v-8.608h1.313v1.225c0.632-0.946,1.546-1.419,2.739-1.419c0.52,0,0.996,0.094,1.431,0.28
		c0.436,0.186,0.761,0.431,0.978,0.733c0.216,0.303,0.367,0.662,0.453,1.078c0.055,0.27,0.081,0.742,0.081,1.418v5.293h-1.459
		v-5.236c0-0.594-0.057-1.038-0.17-1.333s-0.314-0.529-0.604-0.705s-0.628-0.264-1.018-0.264c-0.621,0-1.158,0.197-1.608,0.592
		c-0.452,0.395-0.678,1.143-0.678,2.245v4.701H251.647z"/>
	<path d="M264.065,72.74l0.211,1.288c-0.41,0.087-0.778,0.13-1.103,0.13c-0.529,0-0.939-0.084-1.231-0.251
		c-0.292-0.168-0.497-0.388-0.616-0.661c-0.119-0.272-0.179-0.847-0.179-1.722v-4.953h-1.078v-1.135h1.078v-2.132l1.459-0.875v3.007
		h1.459v1.135h-1.459v5.034c0,0.416,0.025,0.684,0.077,0.802c0.051,0.119,0.134,0.214,0.25,0.284c0.115,0.07,0.28,0.105,0.495,0.105
		C263.59,72.797,263.803,72.777,264.065,72.74z"/>
	<path d="M266.449,77.538h-1.046c1.616-2.594,2.424-5.189,2.424-7.789c0-1.016-0.116-2.023-0.349-3.023
		c-0.184-0.811-0.44-1.589-0.77-2.334c-0.211-0.486-0.646-1.297-1.306-2.432h1.046c1.016,1.356,1.767,2.718,2.253,4.085
		c0.416,1.178,0.624,2.41,0.624,3.696c0,1.459-0.279,2.869-0.839,4.23C267.929,75.334,267.249,76.522,266.449,77.538z"/>
</g>
<g>
	<path d="M46.19,93.965V82.082h8.017v1.402h-6.443v3.68h5.576v1.402h-5.576v5.398H46.19z"/>
</g>
<g>
	<path d="M56.276,93.965V82.082h5.269c1.06,0,1.864,0.107,2.416,0.32c0.551,0.214,0.991,0.591,1.321,1.131
		c0.329,0.54,0.494,1.138,0.494,1.791c0,0.843-0.273,1.554-0.818,2.132c-0.546,0.578-1.39,0.945-2.529,1.103
		c0.416,0.2,0.732,0.397,0.948,0.592c0.459,0.421,0.895,0.948,1.305,1.58l2.064,3.234h-1.975l-1.573-2.473
		c-0.459-0.713-0.837-1.259-1.135-1.637c-0.297-0.378-0.562-0.644-0.798-0.795c-0.235-0.15-0.475-0.256-0.718-0.315
		c-0.178-0.038-0.47-0.057-0.875-0.057h-1.824v5.276H56.276z M57.849,87.326h3.381c0.718,0,1.28-0.074,1.686-0.223
		s0.713-0.386,0.924-0.713s0.316-0.683,0.316-1.066c0-0.562-0.204-1.023-0.612-1.386s-1.052-0.543-1.933-0.543h-3.762V87.326z"/>
</g>
<g>
	<path d="M67.428,88.178c0-1.973,0.529-3.517,1.588-4.633c1.06-1.115,2.427-1.674,4.102-1.674c1.098,0,2.086,0.263,2.967,0.787
		c0.881,0.523,1.553,1.255,2.015,2.192s0.692,2,0.692,3.189c0,1.205-0.243,2.283-0.729,3.233c-0.486,0.951-1.175,1.672-2.066,2.16
		c-0.892,0.489-1.854,0.734-2.886,0.734c-1.118,0-2.118-0.271-2.999-0.811c-0.881-0.541-1.548-1.278-2.002-2.213
		C67.654,90.209,67.428,89.221,67.428,88.178z M69.049,88.202c0,1.432,0.385,2.56,1.154,3.384c0.771,0.824,1.736,1.236,2.898,1.236
		c1.184,0,2.157-0.416,2.922-1.248c0.765-0.833,1.146-2.014,1.146-3.543c0-0.967-0.163-1.812-0.49-2.532
		c-0.327-0.722-0.805-1.281-1.435-1.678c-0.63-0.397-1.336-0.597-2.119-0.597c-1.113,0-2.071,0.383-2.874,1.147
		C69.45,85.137,69.049,86.413,69.049,88.202z"/>
	<path d="M80.77,93.965V82.082h2.366l2.816,8.414c0.26,0.783,0.449,1.369,0.567,1.759c0.136-0.433,0.347-1.067,0.634-1.905
		l2.853-8.268h2.119v11.883h-1.516V84.02l-3.467,9.945h-1.416L82.285,83.85v10.115H80.77z"/>
	<path d="M98.527,89.661c0-1.595,0.443-2.775,1.33-3.542c0.74-0.638,1.643-0.957,2.707-0.957c1.184,0,2.15,0.388,2.901,1.163
		s1.127,1.847,1.127,3.214c0,1.108-0.166,1.979-0.499,2.614c-0.332,0.635-0.815,1.128-1.45,1.479
		c-0.636,0.351-1.328,0.526-2.079,0.526c-1.205,0-2.18-0.386-2.922-1.159C98.899,92.228,98.527,91.114,98.527,89.661z
		 M100.027,89.661c0,1.103,0.24,1.928,0.722,2.476c0.48,0.549,1.086,0.823,1.815,0.823c0.724,0,1.326-0.275,1.808-0.827
		c0.48-0.551,0.721-1.392,0.721-2.521c0-1.064-0.241-1.871-0.725-2.42c-0.484-0.548-1.085-0.822-1.804-0.822
		c-0.729,0-1.335,0.272-1.815,0.818C100.268,87.734,100.027,88.559,100.027,89.661z"/>
	<path d="M108.287,93.965v-8.608h1.312v1.306c0.336-0.611,0.645-1.014,0.929-1.208c0.283-0.194,0.596-0.292,0.937-0.292
		c0.491,0,0.991,0.157,1.499,0.471l-0.505,1.353c-0.356-0.21-0.713-0.315-1.068-0.315c-0.319,0-0.605,0.096-0.858,0.288
		c-0.254,0.191-0.435,0.458-0.543,0.798c-0.162,0.519-0.243,1.086-0.243,1.702v4.507H108.287z"/>
	<path d="M119.408,93.965v-1.086c-0.546,0.854-1.349,1.28-2.407,1.28c-0.687,0-1.317-0.189-1.893-0.567
		c-0.576-0.378-1.021-0.906-1.338-1.584c-0.315-0.679-0.474-1.458-0.474-2.339c0-0.859,0.143-1.639,0.43-2.339
		c0.286-0.699,0.716-1.235,1.288-1.608c0.573-0.373,1.213-0.56,1.921-0.56c0.52,0,0.981,0.109,1.387,0.328s0.734,0.504,0.988,0.855
		l-0.008-4.264h1.459v11.883H119.408z M114.796,89.669c0,1.103,0.232,1.927,0.697,2.472c0.465,0.546,1.014,0.819,1.646,0.819
		c0.638,0,1.18-0.261,1.625-0.782c0.446-0.521,0.669-1.317,0.669-2.387c0-1.179-0.228-2.043-0.681-2.594
		c-0.454-0.552-1.014-0.827-1.679-0.827c-0.648,0-1.189,0.265-1.625,0.794C115.014,87.694,114.796,88.529,114.796,89.669z"/>
	<path d="M128.956,91.185l1.507,0.194c-0.237,0.881-0.678,1.564-1.32,2.051c-0.644,0.486-1.465,0.729-2.465,0.729
		c-1.259,0-2.257-0.388-2.995-1.163c-0.737-0.775-1.106-1.862-1.106-3.263c0-1.447,0.373-2.571,1.119-3.371s1.713-1.2,2.901-1.2
		c1.151,0,2.092,0.392,2.821,1.176c0.729,0.783,1.094,1.886,1.094,3.307c0,0.087-0.003,0.216-0.008,0.389h-6.428
		c0.054,0.946,0.322,1.67,0.804,2.173s1.083,0.754,1.803,0.754c0.535,0,0.993-0.142,1.372-0.424S128.733,91.804,128.956,91.185z
		 M124.157,88.834h4.814c-0.064-0.724-0.249-1.267-0.552-1.629c-0.466-0.562-1.069-0.843-1.811-0.843
		c-0.671,0-1.235,0.224-1.693,0.673C124.459,87.483,124.206,88.083,124.157,88.834z"/>
	<path d="M132.279,93.965v-8.608h1.312v1.306c0.336-0.611,0.645-1.014,0.929-1.208c0.283-0.194,0.596-0.292,0.937-0.292
		c0.491,0,0.991,0.157,1.499,0.471l-0.505,1.353c-0.356-0.21-0.713-0.315-1.068-0.315c-0.319,0-0.605,0.096-0.858,0.288
		c-0.254,0.191-0.435,0.458-0.543,0.798c-0.162,0.519-0.243,1.086-0.243,1.702v4.507H132.279z"/>
	<path d="M136.479,97.264V96.21h9.67v1.054H136.479z"/>
	<path d="M150.24,92.66l0.211,1.288c-0.41,0.087-0.778,0.13-1.103,0.13c-0.529,0-0.939-0.084-1.231-0.251
		c-0.292-0.168-0.497-0.388-0.616-0.661c-0.119-0.272-0.179-0.847-0.179-1.722v-4.953h-1.078v-1.135h1.078v-2.132l1.459-0.875v3.007
		h1.459v1.135h-1.459v5.034c0,0.416,0.025,0.684,0.077,0.802c0.051,0.119,0.134,0.214,0.25,0.284c0.115,0.07,0.28,0.105,0.495,0.105
		C149.765,92.717,149.978,92.697,150.24,92.66z"/>
	<path d="M157.284,92.903c-0.54,0.459-1.061,0.783-1.56,0.973c-0.5,0.188-1.036,0.283-1.609,0.283c-0.945,0-1.673-0.23-2.181-0.692
		c-0.508-0.463-0.762-1.053-0.762-1.771c0-0.422,0.096-0.807,0.288-1.155c0.191-0.349,0.442-0.628,0.754-0.839
		c0.311-0.211,0.66-0.37,1.05-0.479c0.286-0.075,0.718-0.148,1.297-0.219c1.178-0.14,2.045-0.308,2.602-0.502
		c0.005-0.2,0.008-0.327,0.008-0.381c0-0.595-0.138-1.014-0.413-1.257c-0.373-0.329-0.927-0.494-1.662-0.494
		c-0.686,0-1.192,0.12-1.52,0.36c-0.327,0.241-0.568,0.666-0.726,1.277l-1.426-0.195c0.129-0.61,0.343-1.104,0.64-1.479
		c0.297-0.376,0.727-0.665,1.289-0.868c0.562-0.202,1.213-0.304,1.953-0.304c0.735,0,1.332,0.087,1.792,0.26
		c0.459,0.173,0.797,0.391,1.013,0.652s0.367,0.593,0.454,0.993c0.049,0.248,0.072,0.696,0.072,1.345v1.945
		c0,1.356,0.031,2.215,0.094,2.574c0.062,0.359,0.185,0.704,0.369,1.033h-1.524C157.425,93.662,157.328,93.309,157.284,92.903z
		 M157.163,89.645c-0.529,0.216-1.324,0.4-2.383,0.551c-0.6,0.087-1.024,0.185-1.272,0.292c-0.249,0.108-0.44,0.267-0.576,0.475
		c-0.135,0.208-0.202,0.438-0.202,0.692c0,0.39,0.146,0.714,0.441,0.973c0.295,0.26,0.726,0.39,1.293,0.39
		c0.562,0,1.062-0.123,1.5-0.369c0.438-0.245,0.759-0.582,0.964-1.009c0.157-0.33,0.235-0.816,0.235-1.459V89.645z"/>
</g>
<g>
	<path d="M162.24,93.965h-1.354V82.082h1.459v4.239c0.616-0.772,1.402-1.159,2.359-1.159c0.529,0,1.03,0.107,1.503,0.32
		c0.473,0.214,0.862,0.514,1.167,0.899c0.306,0.387,0.545,0.853,0.718,1.398s0.259,1.13,0.259,1.751c0,1.475-0.364,2.615-1.094,3.42
		c-0.729,0.806-1.604,1.208-2.626,1.208c-1.017,0-1.813-0.424-2.392-1.272V93.965z M162.225,89.596c0,1.032,0.14,1.778,0.421,2.237
		c0.458,0.751,1.078,1.127,1.86,1.127c0.637,0,1.187-0.277,1.65-0.831s0.696-1.379,0.696-2.477c0-1.123-0.223-1.953-0.668-2.488
		c-0.444-0.535-0.982-0.802-1.613-0.802c-0.637,0-1.188,0.276-1.651,0.83C162.456,87.747,162.225,88.548,162.225,89.596z"/>
</g>
<g>
	<path d="M169.761,93.965V82.082h1.459v11.883H169.761z"/>
	<path d="M179.374,91.185l1.507,0.194c-0.237,0.881-0.678,1.564-1.32,2.051c-0.644,0.486-1.465,0.729-2.465,0.729
		c-1.259,0-2.257-0.388-2.995-1.163c-0.737-0.775-1.106-1.862-1.106-3.263c0-1.447,0.373-2.571,1.119-3.371s1.713-1.2,2.901-1.2
		c1.151,0,2.092,0.392,2.821,1.176c0.729,0.783,1.094,1.886,1.094,3.307c0,0.087-0.003,0.216-0.008,0.389h-6.428
		c0.054,0.946,0.322,1.67,0.804,2.173s1.083,0.754,1.803,0.754c0.535,0,0.993-0.142,1.372-0.424S179.151,91.804,179.374,91.185z
		 M174.575,88.834h4.814c-0.064-0.724-0.249-1.267-0.552-1.629c-0.466-0.562-1.069-0.843-1.811-0.843
		c-0.671,0-1.235,0.224-1.693,0.673C174.877,87.483,174.624,88.083,174.575,88.834z"/>
	<path d="M186.212,93.965l4.573-11.883h1.686l4.865,11.883h-1.791l-1.384-3.599h-4.978l-1.307,3.599H186.212z M189.639,89.085h4.028
		l-1.242-3.291c-0.378-0.999-0.658-1.82-0.84-2.464c-0.151,0.764-0.363,1.521-0.637,2.272L189.639,89.085z"/>
	<path d="M198.058,90.147l1.483-0.13c0.07,0.596,0.233,1.085,0.489,1.468c0.257,0.382,0.654,0.69,1.194,0.927
		c0.54,0.235,1.146,0.354,1.821,0.354c0.6,0,1.128-0.09,1.587-0.269s0.8-0.424,1.024-0.735c0.224-0.312,0.336-0.651,0.336-1.02
		c0-0.373-0.108-0.699-0.324-0.978c-0.217-0.278-0.573-0.513-1.07-0.702c-0.319-0.124-1.024-0.317-2.115-0.58
		c-1.092-0.263-1.856-0.51-2.294-0.743c-0.567-0.297-0.99-0.667-1.269-1.107c-0.278-0.441-0.418-0.935-0.418-1.481
		c0-0.601,0.171-1.162,0.511-1.684c0.341-0.522,0.838-0.919,1.491-1.189c0.654-0.271,1.381-0.406,2.181-0.406
		c0.881,0,1.658,0.143,2.33,0.426c0.673,0.284,1.19,0.701,1.553,1.252c0.362,0.552,0.557,1.176,0.583,1.873l-1.507,0.113
		c-0.081-0.751-0.355-1.318-0.823-1.702c-0.467-0.384-1.157-0.575-2.07-0.575c-0.951,0-1.645,0.175-2.079,0.523
		c-0.436,0.35-0.653,0.77-0.653,1.263c0,0.428,0.154,0.779,0.463,1.056c0.302,0.275,1.093,0.559,2.37,0.849
		c1.278,0.289,2.155,0.542,2.631,0.758c0.691,0.319,1.202,0.724,1.531,1.212c0.33,0.489,0.495,1.053,0.495,1.69
		c0,0.633-0.182,1.229-0.543,1.788s-0.882,0.994-1.559,1.305c-0.678,0.311-1.44,0.467-2.288,0.467c-1.074,0-1.975-0.157-2.701-0.471
		c-0.726-0.313-1.296-0.785-1.709-1.414C198.296,91.653,198.079,90.941,198.058,90.147z"/>
	<path d="M213.538,89.661c0-1.595,0.443-2.775,1.33-3.542c0.74-0.638,1.643-0.957,2.707-0.957c1.184,0,2.15,0.388,2.901,1.163
		s1.127,1.847,1.127,3.214c0,1.108-0.166,1.979-0.499,2.614c-0.332,0.635-0.815,1.128-1.45,1.479
		c-0.636,0.351-1.328,0.526-2.079,0.526c-1.205,0-2.18-0.386-2.922-1.159C213.91,92.228,213.538,91.114,213.538,89.661z
		 M215.038,89.661c0,1.103,0.24,1.928,0.722,2.476c0.48,0.549,1.086,0.823,1.815,0.823c0.724,0,1.326-0.275,1.808-0.827
		c0.48-0.551,0.721-1.392,0.721-2.521c0-1.064-0.241-1.871-0.725-2.42c-0.484-0.548-1.085-0.822-1.804-0.822
		c-0.729,0-1.335,0.272-1.815,0.818C215.278,87.734,215.038,88.559,215.038,89.661z"/>
	<path d="M221.969,97.264V96.21h9.67v1.054H221.969z"/>
	<path d="M239.809,92.562v1.402h-7.854c-0.012-0.352,0.046-0.689,0.17-1.014c0.2-0.534,0.52-1.061,0.96-1.579
		c0.44-0.518,1.077-1.117,1.909-1.796c1.291-1.061,2.164-1.9,2.618-2.52c0.454-0.618,0.681-1.204,0.681-1.757
		c0-0.578-0.206-1.065-0.62-1.463c-0.413-0.397-0.952-0.596-1.617-0.596c-0.702,0-1.264,0.211-1.686,0.632
		c-0.422,0.422-0.635,1.006-0.641,1.751l-1.499-0.153c0.103-1.119,0.489-1.972,1.159-2.558s1.569-0.88,2.699-0.88
		c1.14,0,2.042,0.316,2.707,0.949c0.664,0.632,0.997,1.415,0.997,2.35c0,0.476-0.098,0.943-0.292,1.402
		c-0.194,0.46-0.518,0.943-0.969,1.451s-1.2,1.205-2.247,2.092c-0.876,0.734-1.438,1.233-1.687,1.495
		c-0.248,0.262-0.453,0.525-0.615,0.79H239.809z"/>
</g>
<g>
</g>
<g>
</g>
<g>
	<path d="M47.54,113.885l-3.155-11.883h1.612l1.813,7.788c0.195,0.816,0.362,1.627,0.501,2.433c0.302-1.269,0.479-2.001,0.533-2.195
		l2.263-8.025h1.897l1.703,6.013c0.423,1.493,0.73,2.896,0.923,4.208c0.152-0.75,0.349-1.611,0.589-2.585l1.871-7.636h1.58
		l-3.26,11.883h-1.519l-2.494-9.058c-0.219-0.754-0.347-1.218-0.383-1.391c-0.127,0.546-0.244,1.011-0.349,1.396l-2.519,9.053H47.54
		z"/>
	<path d="M61.188,113.885v-11.883h1.572v4.88h6.168v-4.88H70.5v11.883h-1.572v-5.601H62.76v5.601H61.188z"/>
	<path d="M73.151,113.885v-11.883h8.592v1.402h-7.02v3.631h6.573v1.402h-6.573v4.045h7.295v1.402H73.151z"/>
	<path d="M84.214,113.885v-11.883h5.269c1.06,0,1.864,0.107,2.416,0.32c0.551,0.214,0.991,0.591,1.321,1.131
		c0.329,0.54,0.494,1.138,0.494,1.791c0,0.843-0.273,1.554-0.818,2.132c-0.546,0.578-1.39,0.945-2.529,1.103
		c0.416,0.2,0.732,0.397,0.948,0.592c0.459,0.421,0.895,0.948,1.305,1.58l2.064,3.234h-1.975l-1.573-2.473
		c-0.459-0.713-0.837-1.259-1.135-1.637c-0.297-0.378-0.562-0.644-0.798-0.795c-0.235-0.15-0.475-0.256-0.718-0.315
		c-0.178-0.038-0.47-0.057-0.875-0.057h-1.824v5.276H84.214z M85.786,107.246h3.381c0.718,0,1.28-0.074,1.686-0.223
		s0.713-0.386,0.924-0.713s0.316-0.683,0.316-1.066c0-0.562-0.204-1.023-0.612-1.386s-1.052-0.543-1.933-0.543h-3.762V107.246z"/>
	<path d="M96.211,113.885v-11.883h8.592v1.402h-7.02v3.631h6.573v1.402h-6.573v4.045h7.295v1.402H96.211z"/>
	<path d="M111.133,109.581c0-1.595,0.443-2.775,1.33-3.542c0.74-0.638,1.643-0.957,2.707-0.957c1.184,0,2.15,0.388,2.901,1.163
		s1.127,1.847,1.127,3.214c0,1.108-0.166,1.979-0.499,2.614c-0.332,0.635-0.815,1.128-1.45,1.479
		c-0.636,0.351-1.328,0.526-2.079,0.526c-1.205,0-2.18-0.386-2.922-1.159C111.505,112.147,111.133,111.034,111.133,109.581z
		 M112.633,109.581c0,1.103,0.24,1.928,0.722,2.476c0.48,0.549,1.086,0.823,1.815,0.823c0.724,0,1.326-0.275,1.808-0.827
		c0.48-0.551,0.721-1.392,0.721-2.521c0-1.064-0.241-1.871-0.725-2.42c-0.484-0.548-1.085-0.822-1.804-0.822
		c-0.729,0-1.335,0.272-1.815,0.818C112.873,107.654,112.633,108.479,112.633,109.581z"/>
	<path d="M119.562,117.184v-1.054h9.67v1.054H119.562z"/>
	<path d="M135.23,113.885h-1.459v-9.297c-0.352,0.335-0.812,0.67-1.382,1.005c-0.57,0.335-1.082,0.587-1.536,0.754v-1.41
		c0.815-0.384,1.529-0.849,2.14-1.395s1.043-1.075,1.297-1.589h0.94V113.885z"/>
</g>
<g>
	<path d="M144.395,113.885v-1.662h1.661v1.662H144.395z"/>
</g>
<g>
	<path d="M151.645,111.315l1.442-0.228c0.081,0.579,0.308,1.021,0.679,1.33c0.37,0.308,0.889,0.462,1.555,0.462
		c0.672,0,1.17-0.137,1.494-0.409c0.325-0.273,0.487-0.594,0.487-0.961c0-0.329-0.144-0.589-0.43-0.778
		c-0.2-0.13-0.698-0.294-1.494-0.494c-1.072-0.271-1.815-0.504-2.229-0.701c-0.413-0.197-0.727-0.47-0.94-0.818
		s-0.32-0.733-0.32-1.155c0-0.384,0.088-0.739,0.264-1.065c0.176-0.327,0.415-0.599,0.718-0.815c0.228-0.167,0.537-0.309,0.93-0.425
		s0.812-0.175,1.262-0.175c0.677,0,1.271,0.098,1.781,0.292c0.512,0.194,0.889,0.458,1.133,0.79
		c0.243,0.333,0.411,0.777,0.503,1.334l-1.427,0.194c-0.065-0.443-0.253-0.789-0.564-1.038c-0.312-0.248-0.752-0.372-1.32-0.372
		c-0.671,0-1.15,0.11-1.438,0.332s-0.431,0.48-0.431,0.778c0,0.188,0.06,0.359,0.179,0.511c0.119,0.156,0.306,0.286,0.561,0.389
		c0.146,0.054,0.577,0.179,1.292,0.373c1.034,0.275,1.755,0.501,2.163,0.677s0.729,0.431,0.961,0.766s0.349,0.751,0.349,1.248
		c0,0.486-0.143,0.944-0.426,1.374c-0.284,0.43-0.694,0.762-1.229,0.997c-0.536,0.235-1.142,0.353-1.818,0.353
		c-1.119,0-1.973-0.232-2.56-0.697C152.182,112.918,151.807,112.229,151.645,111.315z"/>
	<path d="M163.713,112.58l0.211,1.288c-0.41,0.087-0.778,0.13-1.103,0.13c-0.529,0-0.939-0.084-1.231-0.251
		c-0.292-0.168-0.497-0.388-0.616-0.661c-0.119-0.272-0.179-0.847-0.179-1.722v-4.953h-1.078v-1.135h1.078v-2.132l1.459-0.875v3.007
		h1.459v1.135h-1.459v5.034c0,0.416,0.025,0.684,0.077,0.802c0.051,0.119,0.134,0.214,0.25,0.284c0.115,0.07,0.28,0.105,0.495,0.105
		C163.237,112.637,163.45,112.617,163.713,112.58z"/>
	<path d="M170.757,112.823c-0.54,0.459-1.061,0.783-1.56,0.973c-0.5,0.188-1.036,0.283-1.609,0.283c-0.945,0-1.673-0.23-2.181-0.692
		c-0.508-0.463-0.762-1.053-0.762-1.771c0-0.422,0.096-0.807,0.288-1.155c0.191-0.349,0.442-0.628,0.754-0.839
		c0.311-0.211,0.66-0.37,1.05-0.479c0.286-0.075,0.718-0.148,1.297-0.219c1.178-0.14,2.045-0.308,2.602-0.502
		c0.005-0.2,0.008-0.327,0.008-0.381c0-0.595-0.138-1.014-0.413-1.257c-0.373-0.329-0.927-0.494-1.662-0.494
		c-0.686,0-1.192,0.12-1.52,0.36c-0.327,0.241-0.568,0.666-0.726,1.277l-1.426-0.195c0.129-0.61,0.343-1.104,0.64-1.479
		c0.297-0.376,0.727-0.665,1.289-0.868c0.562-0.202,1.213-0.304,1.953-0.304c0.735,0,1.332,0.087,1.792,0.26
		c0.459,0.173,0.797,0.391,1.013,0.652s0.367,0.593,0.454,0.993c0.049,0.248,0.072,0.696,0.072,1.345v1.945
		c0,1.356,0.031,2.215,0.094,2.574c0.062,0.359,0.185,0.704,0.369,1.033h-1.524C170.897,113.582,170.801,113.229,170.757,112.823z
		 M170.636,109.564c-0.529,0.216-1.324,0.4-2.383,0.551c-0.6,0.087-1.024,0.185-1.272,0.292c-0.249,0.108-0.44,0.267-0.576,0.475
		c-0.135,0.208-0.202,0.438-0.202,0.692c0,0.39,0.146,0.714,0.441,0.973c0.295,0.26,0.726,0.39,1.293,0.39
		c0.562,0,1.062-0.123,1.5-0.369c0.438-0.245,0.759-0.582,0.964-1.009c0.157-0.33,0.235-0.816,0.235-1.459V109.564z"/>
	<path d="M177.557,112.58l0.211,1.288c-0.41,0.087-0.778,0.13-1.103,0.13c-0.529,0-0.939-0.084-1.231-0.251
		c-0.292-0.168-0.497-0.388-0.616-0.661c-0.119-0.272-0.179-0.847-0.179-1.722v-4.953h-1.078v-1.135h1.078v-2.132l1.459-0.875v3.007
		h1.459v1.135h-1.459v5.034c0,0.416,0.025,0.684,0.077,0.802c0.051,0.119,0.134,0.214,0.25,0.284c0.115,0.07,0.28,0.105,0.495,0.105
		C177.081,112.637,177.294,112.617,177.557,112.58z"/>
	<path d="M184.625,113.885v-1.265c-0.67,0.973-1.58,1.459-2.731,1.459c-0.508,0-0.982-0.097-1.422-0.292
		c-0.441-0.194-0.768-0.438-0.981-0.733c-0.213-0.294-0.363-0.655-0.449-1.082c-0.06-0.286-0.09-0.74-0.09-1.361v-5.334h1.459v4.774
		c0,0.762,0.03,1.275,0.09,1.54c0.092,0.384,0.286,0.685,0.583,0.904c0.297,0.219,0.665,0.328,1.103,0.328s0.849-0.112,1.232-0.337
		c0.383-0.224,0.654-0.529,0.814-0.916c0.159-0.386,0.239-0.946,0.239-1.682v-4.612h1.459v8.608H184.625z"/>
	<path d="M187.633,111.315l1.442-0.228c0.081,0.579,0.308,1.021,0.679,1.33c0.37,0.308,0.889,0.462,1.555,0.462
		c0.672,0,1.17-0.137,1.494-0.409c0.325-0.273,0.487-0.594,0.487-0.961c0-0.329-0.144-0.589-0.43-0.778
		c-0.2-0.13-0.698-0.294-1.494-0.494c-1.072-0.271-1.815-0.504-2.229-0.701c-0.413-0.197-0.727-0.47-0.94-0.818
		s-0.32-0.733-0.32-1.155c0-0.384,0.088-0.739,0.264-1.065c0.176-0.327,0.415-0.599,0.718-0.815c0.228-0.167,0.537-0.309,0.93-0.425
		s0.812-0.175,1.262-0.175c0.677,0,1.271,0.098,1.781,0.292c0.512,0.194,0.889,0.458,1.133,0.79
		c0.243,0.333,0.411,0.777,0.503,1.334l-1.427,0.194c-0.065-0.443-0.253-0.789-0.564-1.038c-0.312-0.248-0.752-0.372-1.32-0.372
		c-0.671,0-1.15,0.11-1.438,0.332s-0.431,0.48-0.431,0.778c0,0.188,0.06,0.359,0.179,0.511c0.119,0.156,0.306,0.286,0.561,0.389
		c0.146,0.054,0.577,0.179,1.292,0.373c1.034,0.275,1.755,0.501,2.163,0.677s0.729,0.431,0.961,0.766s0.349,0.751,0.349,1.248
		c0,0.486-0.143,0.944-0.426,1.374c-0.284,0.43-0.694,0.762-1.229,0.997c-0.536,0.235-1.142,0.353-1.818,0.353
		c-1.119,0-1.973-0.232-2.56-0.697C188.17,112.918,187.795,112.229,187.633,111.315z"/>
	<path d="M208.805,106.897h-7.847v-1.361h7.847V106.897z M208.805,110.505h-7.847v-1.362h7.847V110.505z"/>
	<path d="M214.891,109.581c0-1.595,0.443-2.775,1.33-3.542c0.74-0.638,1.643-0.957,2.707-0.957c1.184,0,2.15,0.388,2.901,1.163
		s1.127,1.847,1.127,3.214c0,1.108-0.166,1.979-0.499,2.614c-0.332,0.635-0.815,1.128-1.45,1.479
		c-0.636,0.351-1.328,0.526-2.079,0.526c-1.205,0-2.18-0.386-2.922-1.159C215.263,112.147,214.891,111.034,214.891,109.581z
		 M216.391,109.581c0,1.103,0.24,1.928,0.722,2.476c0.48,0.549,1.086,0.823,1.815,0.823c0.724,0,1.326-0.275,1.808-0.827
		c0.48-0.551,0.721-1.392,0.721-2.521c0-1.064-0.241-1.871-0.725-2.42c-0.484-0.548-1.085-0.822-1.804-0.822
		c-0.729,0-1.335,0.272-1.815,0.818C216.631,107.654,216.391,108.479,216.391,109.581z"/>
	<path d="M223.321,117.184v-1.054h9.67v1.054H223.321z"/>
	<path d="M241.16,112.482v1.402h-7.854c-0.012-0.352,0.046-0.689,0.17-1.014c0.2-0.534,0.52-1.061,0.96-1.579
		c0.44-0.518,1.077-1.117,1.909-1.796c1.291-1.061,2.164-1.9,2.618-2.52c0.454-0.618,0.681-1.204,0.681-1.757
		c0-0.578-0.206-1.065-0.62-1.463c-0.413-0.397-0.952-0.596-1.617-0.596c-0.702,0-1.264,0.211-1.686,0.632
		c-0.422,0.422-0.635,1.006-0.641,1.751l-1.499-0.153c0.103-1.119,0.489-1.972,1.159-2.558s1.569-0.88,2.699-0.88
		c1.14,0,2.042,0.316,2.707,0.949c0.664,0.632,0.997,1.415,0.997,2.35c0,0.476-0.098,0.943-0.292,1.402
		c-0.194,0.46-0.518,0.943-0.969,1.451s-1.2,1.205-2.247,2.092c-0.876,0.734-1.438,1.233-1.687,1.495
		c-0.248,0.262-0.453,0.525-0.615,0.79H241.16z"/>
	<path d="M243.544,113.885v-1.662h1.661v1.662H243.544z"/>
	<path d="M247.159,111.315l1.442-0.228c0.081,0.579,0.308,1.021,0.679,1.33c0.37,0.308,0.889,0.462,1.555,0.462
		c0.672,0,1.17-0.137,1.494-0.409c0.325-0.273,0.487-0.594,0.487-0.961c0-0.329-0.144-0.589-0.43-0.778
		c-0.2-0.13-0.698-0.294-1.494-0.494c-1.072-0.271-1.815-0.504-2.229-0.701c-0.413-0.197-0.727-0.47-0.94-0.818
		s-0.32-0.733-0.32-1.155c0-0.384,0.088-0.739,0.264-1.065c0.176-0.327,0.415-0.599,0.718-0.815c0.228-0.167,0.537-0.309,0.93-0.425
		s0.812-0.175,1.262-0.175c0.677,0,1.271,0.098,1.781,0.292c0.512,0.194,0.889,0.458,1.133,0.79
		c0.243,0.333,0.411,0.777,0.503,1.334l-1.427,0.194c-0.065-0.443-0.253-0.789-0.564-1.038c-0.312-0.248-0.752-0.372-1.32-0.372
		c-0.671,0-1.15,0.11-1.438,0.332s-0.431,0.48-0.431,0.778c0,0.188,0.06,0.359,0.179,0.511c0.119,0.156,0.306,0.286,0.561,0.389
		c0.146,0.054,0.577,0.179,1.292,0.373c1.034,0.275,1.755,0.501,2.163,0.677s0.729,0.431,0.961,0.766s0.349,0.751,0.349,1.248
		c0,0.486-0.143,0.944-0.426,1.374c-0.284,0.43-0.694,0.762-1.229,0.997c-0.536,0.235-1.142,0.353-1.818,0.353
		c-1.119,0-1.973-0.232-2.56-0.697C247.696,112.918,247.321,112.229,247.159,111.315z"/>
	<path d="M259.228,112.58l0.211,1.288c-0.41,0.087-0.778,0.13-1.103,0.13c-0.529,0-0.939-0.084-1.231-0.251
		c-0.292-0.168-0.497-0.388-0.616-0.661c-0.119-0.272-0.179-0.847-0.179-1.722v-4.953h-1.078v-1.135h1.078v-2.132l1.459-0.875v3.007
		h1.459v1.135h-1.459v5.034c0,0.416,0.025,0.684,0.077,0.802c0.051,0.119,0.134,0.214,0.25,0.284c0.115,0.07,0.28,0.105,0.495,0.105
		C258.752,112.637,258.965,112.617,259.228,112.58z"/>
	<path d="M266.271,112.823c-0.54,0.459-1.061,0.783-1.56,0.973c-0.5,0.188-1.036,0.283-1.609,0.283c-0.945,0-1.673-0.23-2.181-0.692
		c-0.508-0.463-0.762-1.053-0.762-1.771c0-0.422,0.096-0.807,0.288-1.155c0.191-0.349,0.442-0.628,0.754-0.839
		c0.311-0.211,0.66-0.37,1.05-0.479c0.286-0.075,0.718-0.148,1.297-0.219c1.178-0.14,2.045-0.308,2.602-0.502
		c0.005-0.2,0.008-0.327,0.008-0.381c0-0.595-0.138-1.014-0.413-1.257c-0.373-0.329-0.927-0.494-1.662-0.494
		c-0.686,0-1.192,0.12-1.52,0.36c-0.327,0.241-0.568,0.666-0.726,1.277l-1.426-0.195c0.129-0.61,0.343-1.104,0.64-1.479
		c0.297-0.376,0.727-0.665,1.289-0.868c0.562-0.202,1.213-0.304,1.953-0.304c0.735,0,1.332,0.087,1.792,0.26
		c0.459,0.173,0.797,0.391,1.013,0.652s0.367,0.593,0.454,0.993c0.049,0.248,0.072,0.696,0.072,1.345v1.945
		c0,1.356,0.031,2.215,0.094,2.574c0.062,0.359,0.185,0.704,0.369,1.033h-1.524C266.412,113.582,266.315,113.229,266.271,112.823z
		 M266.15,109.564c-0.529,0.216-1.324,0.4-2.383,0.551c-0.6,0.087-1.024,0.185-1.272,0.292c-0.249,0.108-0.44,0.267-0.576,0.475
		c-0.135,0.208-0.202,0.438-0.202,0.692c0,0.39,0.146,0.714,0.441,0.973c0.295,0.26,0.726,0.39,1.293,0.39
		c0.562,0,1.062-0.123,1.5-0.369c0.438-0.245,0.759-0.582,0.964-1.009c0.157-0.33,0.235-0.816,0.235-1.459V109.564z"/>
	<path d="M273.071,112.58l0.211,1.288c-0.41,0.087-0.778,0.13-1.103,0.13c-0.529,0-0.939-0.084-1.231-0.251
		c-0.292-0.168-0.497-0.388-0.616-0.661c-0.119-0.272-0.179-0.847-0.179-1.722v-4.953h-1.078v-1.135h1.078v-2.132l1.459-0.875v3.007
		h1.459v1.135h-1.459v5.034c0,0.416,0.025,0.684,0.077,0.802c0.051,0.119,0.134,0.214,0.25,0.284c0.115,0.07,0.28,0.105,0.495,0.105
		C272.596,112.637,272.809,112.617,273.071,112.58z"/>
	<path d="M280.14,113.885v-1.265c-0.67,0.973-1.58,1.459-2.731,1.459c-0.508,0-0.982-0.097-1.422-0.292
		c-0.441-0.194-0.768-0.438-0.981-0.733c-0.213-0.294-0.363-0.655-0.449-1.082c-0.06-0.286-0.09-0.74-0.09-1.361v-5.334h1.459v4.774
		c0,0.762,0.03,1.275,0.09,1.54c0.092,0.384,0.286,0.685,0.583,0.904c0.297,0.219,0.665,0.328,1.103,0.328s0.849-0.112,1.232-0.337
		c0.383-0.224,0.654-0.529,0.814-0.916c0.159-0.386,0.239-0.946,0.239-1.682v-4.612h1.459v8.608H280.14z"/>
	<path d="M283.147,111.315l1.442-0.228c0.081,0.579,0.308,1.021,0.679,1.33c0.37,0.308,0.889,0.462,1.555,0.462
		c0.672,0,1.17-0.137,1.494-0.409c0.325-0.273,0.487-0.594,0.487-0.961c0-0.329-0.144-0.589-0.43-0.778
		c-0.2-0.13-0.698-0.294-1.494-0.494c-1.072-0.271-1.815-0.504-2.229-0.701c-0.413-0.197-0.727-0.47-0.94-0.818
		s-0.32-0.733-0.32-1.155c0-0.384,0.088-0.739,0.264-1.065c0.176-0.327,0.415-0.599,0.718-0.815c0.228-0.167,0.537-0.309,0.93-0.425
		s0.812-0.175,1.262-0.175c0.677,0,1.271,0.098,1.781,0.292c0.512,0.194,0.889,0.458,1.133,0.79
		c0.243,0.333,0.411,0.777,0.503,1.334l-1.427,0.194c-0.065-0.443-0.253-0.789-0.564-1.038c-0.312-0.248-0.752-0.372-1.32-0.372
		c-0.671,0-1.15,0.11-1.438,0.332s-0.431,0.48-0.431,0.778c0,0.188,0.06,0.359,0.179,0.511c0.119,0.156,0.306,0.286,0.561,0.389
		c0.146,0.054,0.577,0.179,1.292,0.373c1.034,0.275,1.755,0.501,2.163,0.677s0.729,0.431,0.961,0.766s0.349,0.751,0.349,1.248
		c0,0.486-0.143,0.944-0.426,1.374c-0.284,0.43-0.694,0.762-1.229,0.997c-0.536,0.235-1.142,0.353-1.818,0.353
		c-1.119,0-1.973-0.232-2.56-0.697C283.685,112.918,283.31,112.229,283.147,111.315z"/>
	<path d="M292.987,117.378h-1.046c1.616-2.594,2.424-5.189,2.424-7.789c0-1.016-0.116-2.023-0.349-3.023
		c-0.184-0.811-0.44-1.589-0.77-2.334c-0.211-0.486-0.646-1.297-1.306-2.432h1.046c1.016,1.356,1.767,2.718,2.253,4.085
		c0.416,1.178,0.624,2.41,0.624,3.696c0,1.459-0.279,2.869-0.839,4.23C294.467,115.174,293.787,116.362,292.987,117.378z"/>
	<path d="M302.552,113.885v-1.662h1.661v1.662c0,0.61-0.108,1.104-0.324,1.479c-0.216,0.375-0.56,0.666-1.029,0.871l-0.405-0.624
		c0.308-0.135,0.535-0.334,0.681-0.596c0.146-0.263,0.228-0.64,0.243-1.131H302.552z M302.552,106.938v-1.662h1.661v1.662H302.552z"
		/>
</g>
<g>
	<defs>
		<rect id="SVGID_3_" width="333.66" height="151.049"/>
	</defs>
	<clipPath id="SVGID_4_">
		<use xlink:href="#SVGID_3_"  overflow="visible"/>
	</clipPath>
	<path clip-path="url(#SVGID_4_)" fill="none" stroke="#000000" stroke-width="0.83" d="M125.231,98.084
		c9.821,0,17.784,4.67,17.784,10.426c0,5.758-7.963,10.426-17.784,10.426s-17.784-4.668-17.784-10.426
		C107.447,102.754,115.41,98.084,125.231,98.084z M200.331,19.352c9.821,0,17.784,4.668,17.784,10.424
		c0,5.758-7.963,10.426-17.784,10.426s-17.784-4.668-17.784-10.426C182.547,24.02,190.51,19.352,200.331,19.352z"/>
	<polygon clip-path="url(#SVGID_4_)" points="237.092,28.443 234.42,39.09 218.189,29.361 	"/>
	<polygon clip-path="url(#SVGID_4_)" fill="none" stroke="#000000" stroke-width="1.66" points="237.092,28.443 234.42,39.09 
		218.189,29.361 	"/>
	<path clip-path="url(#SVGID_4_)" fill="none" stroke="#000000" stroke-width="0.83" d="M124.159,119.223
		c1.518,25.129,89.036,27.281,129.029,21.467 M252.082,141.102c52.796-3.27,73.688-28.133,73.688-52.646 M325.771,88.713
		c-6.439-24.805-47.736-46.279-90.208-54.299"/>
</g>
</svg>
